<svg width="28" height="28" viewBox="0 0 28 28" fill="none" xmlns="http://www.w3.org/2000/svg">
<path opacity="0.32" d="M8.06272 16.9373C8.40862 16.5914 8.58157 16.4184 8.78341 16.2947C8.96235 16.1851 9.15744 16.1043 9.36151 16.0553C9.59169 16 9.83628 16 10.3255 16H17.6745C18.1637 16 18.4083 16 18.6384 16.0553C18.8425 16.1043 19.0376 16.1851 19.2165 16.2947C19.4184 16.4184 19.5913 16.5914 19.9372 16.9373L24.2686 21.2686C25.1254 22.1254 25.5537 22.5538 25.5827 22.9215C25.6078 23.2407 25.4786 23.5525 25.2352 23.7604C24.9547 24 24.3489 24 23.1372 24H4.86272C3.65109 24 3.04527 24 2.76474 23.7604C2.52133 23.5525 2.39216 23.2407 2.41727 22.9215C2.44622 22.5538 2.87459 22.1254 3.73135 21.2686L8.06272 16.9373Z" fill="#45AEF5"/>
<path fill-rule="evenodd" clip-rule="evenodd" d="M15.0607 2.93934C14.4749 2.35355 13.5251 2.35355 12.9393 2.93934L7.43934 8.43934C6.85355 9.02513 6.85355 9.97487 7.43934 10.5607C8.02513 11.1464 8.97487 11.1464 9.56066 10.5607L12.5 7.62132V19C12.5 19.8284 13.1716 20.5 14 20.5C14.8284 20.5 15.5 19.8284 15.5 19V7.62132L18.4393 10.5607C19.0251 11.1464 19.9749 11.1464 20.5607 10.5607C21.1464 9.97487 21.1464 9.02513 20.5607 8.43934L15.0607 2.93934Z" fill="#45AEF5"/>
</svg>
